<svg width="158" height="40" viewBox="0 0 158 40" fill="none" xmlns="http://www.w3.org/2000/svg">
                            <path d="M145.086 15.1812H145.92L146.215 14.3714H145.086V13.6152H146.489L146.789 12.8054H143.925V16.528H145.086V15.1812Z" className="dark:fill-white fill-black" />
                            <path d="M148.304 12.8054H147.143V16.528H148.304V12.8054Z" className="dark:fill-white fill-black" />
                            <path d="M150.263 15.1812H151.097L151.393 14.3714H150.263V13.6152H151.666L151.967 12.8054H149.102V16.528H150.263V15.1812Z" className="dark:fill-white fill-black" />
                            <path d="M152.509 16.528L152.652 16.0268H153.966L154.118 16.528H155.288L153.93 12.8054H152.724L151.366 16.528H152.509V16.528ZM153.307 13.7629L153.769 15.311H152.854L153.307 13.7629Z" className="dark:fill-white fill-black" />
                            <path d="M154.88 13.7584C154.929 13.8076 154.988 13.8479 155.059 13.8792C155.127 13.9105 155.198 13.924 155.279 13.924C155.355 13.924 155.427 13.9105 155.499 13.8792C155.566 13.8479 155.624 13.8121 155.678 13.7584C155.727 13.7092 155.768 13.651 155.799 13.5794C155.83 13.5123 155.844 13.4407 155.844 13.3602C155.844 13.2841 155.83 13.2126 155.799 13.141C155.768 13.0694 155.727 13.0157 155.678 12.962C155.629 12.9128 155.57 12.8725 155.499 12.8412C155.432 12.8099 155.36 12.7964 155.279 12.7964C155.203 12.7964 155.131 12.8099 155.059 12.8412C154.992 12.8725 154.934 12.9128 154.88 12.962C154.831 13.0112 154.791 13.0694 154.759 13.141C154.728 13.2081 154.714 13.2797 154.714 13.3602C154.714 13.4363 154.728 13.5079 154.759 13.5794C154.791 13.6466 154.831 13.7092 154.88 13.7584ZM154.885 13.1812C154.907 13.1275 154.938 13.0783 154.974 13.0381C155.015 12.9978 155.055 12.9665 155.109 12.9441C155.158 12.9217 155.216 12.9128 155.275 12.9128C155.333 12.9128 155.387 12.9217 155.44 12.9441C155.49 12.9665 155.535 12.9978 155.575 13.0381C155.615 13.0783 155.642 13.1275 155.665 13.1812C155.687 13.2349 155.696 13.2976 155.696 13.3602C155.696 13.4273 155.687 13.4855 155.665 13.5392C155.642 13.5929 155.611 13.6421 155.575 13.6824C155.535 13.7226 155.494 13.7539 155.44 13.7763C155.391 13.7987 155.333 13.8076 155.275 13.8076C155.216 13.8076 155.163 13.7987 155.109 13.7763C155.059 13.7539 155.015 13.7226 154.974 13.6824C154.934 13.6421 154.907 13.5929 154.885 13.5392C154.862 13.4855 154.853 13.4228 154.853 13.3602C154.853 13.2976 154.862 13.2394 154.885 13.1812Z" className="dark:fill-white fill-black" />
                            <path d="M155.176 13.405H155.247L155.413 13.6779H155.534L155.364 13.4005C155.417 13.396 155.458 13.3781 155.485 13.3513C155.511 13.3244 155.529 13.2842 155.529 13.2305C155.529 13.1633 155.511 13.1141 155.471 13.0873C155.431 13.0604 155.373 13.0425 155.297 13.0425H155.059V13.6734H155.176V13.405V13.405ZM155.176 13.1365H155.283C155.297 13.1365 155.315 13.1365 155.328 13.141C155.341 13.141 155.355 13.1454 155.368 13.1544C155.382 13.1589 155.391 13.1678 155.4 13.1812C155.408 13.1947 155.413 13.2081 155.413 13.226C155.413 13.2484 155.408 13.2663 155.404 13.2752C155.395 13.2886 155.386 13.2976 155.377 13.3021C155.364 13.3065 155.35 13.311 155.337 13.3155C155.323 13.3155 155.306 13.3199 155.288 13.3199H155.185V13.1365H155.176Z" className="dark:fill-white fill-black" />
                            <path d="M145.153 23.1141C145.207 23.1723 145.274 23.217 145.355 23.2483C145.435 23.2796 145.53 23.2931 145.637 23.2931C145.745 23.2931 145.834 23.2796 145.915 23.2483C145.996 23.217 146.063 23.1723 146.121 23.1141C146.175 23.0559 146.22 22.9843 146.247 22.9038C146.274 22.8188 146.287 22.7293 146.287 22.6264C146.287 22.5235 146.274 22.4295 146.247 22.3445C146.22 22.2595 146.18 22.1924 146.121 22.1342C146.068 22.0761 146 22.0313 145.92 22C145.839 21.9687 145.745 21.9553 145.637 21.9553C145.53 21.9553 145.435 21.9687 145.355 22C145.274 22.0313 145.207 22.0761 145.153 22.1342C145.099 22.1924 145.059 22.264 145.028 22.3445C145.001 22.4251 144.987 22.519 144.987 22.6264C144.987 22.7293 145.001 22.8233 145.028 22.9038C145.059 22.9888 145.099 23.0559 145.153 23.1141ZM145.364 22.4653C145.377 22.4161 145.391 22.3714 145.418 22.3356C145.44 22.2998 145.471 22.2685 145.507 22.2461C145.543 22.2237 145.588 22.2148 145.642 22.2148C145.695 22.2148 145.74 22.2282 145.776 22.2461C145.812 22.2685 145.843 22.2998 145.866 22.3356C145.888 22.3714 145.906 22.4161 145.92 22.4653C145.933 22.5145 145.938 22.5682 145.938 22.6219C145.938 22.6756 145.933 22.7248 145.92 22.7785C145.906 22.8277 145.893 22.8725 145.866 22.9128C145.843 22.953 145.812 22.9799 145.776 23.0067C145.74 23.0291 145.695 23.0425 145.642 23.0425C145.588 23.0425 145.543 23.0291 145.507 23.0067C145.471 22.9843 145.44 22.953 145.418 22.9128C145.395 22.8725 145.377 22.8322 145.364 22.7785C145.35 22.7293 145.346 22.6756 145.346 22.6219C145.346 22.5682 145.35 22.519 145.364 22.4653Z" className="dark:fill-white fill-black" />
                            <path d="M146.915 22.7517H147.412V22.5056H146.915V22.2237H147.435V21.9777H146.57V23.2752H146.915V22.7517Z" className="dark:fill-white fill-black" />
                            <path d="M148.04 22.7517H148.542V22.5056H148.04V22.2237H148.564V21.9777H147.695V23.2752H148.04V22.7517Z" className="dark:fill-white fill-black" />
                            <path d="M149.191 21.9777H148.847V23.2752H149.191V21.9777Z" className="dark:fill-white fill-black" />
                            <path d="M149.739 23.1454C149.81 23.1991 149.891 23.2349 149.981 23.2573C150.07 23.2796 150.156 23.2931 150.245 23.2931C150.335 23.2931 150.407 23.2886 150.465 23.2752C150.523 23.2662 150.577 23.2528 150.631 23.2394L150.613 22.9664C150.563 22.9843 150.514 23.0022 150.46 23.0157C150.407 23.0291 150.348 23.0336 150.29 23.0336C150.227 23.0336 150.169 23.0246 150.115 23.0067C150.061 22.9888 150.017 22.962 149.981 22.9262C149.945 22.8904 149.914 22.8501 149.891 22.7964C149.869 22.7472 149.86 22.689 149.86 22.6264C149.86 22.5638 149.869 22.5101 149.887 22.4564C149.905 22.4072 149.931 22.3624 149.967 22.3221C150.003 22.2863 150.044 22.255 150.093 22.2327C150.142 22.2103 150.2 22.2013 150.259 22.2013C150.317 22.2013 150.375 22.2103 150.429 22.2237C150.483 22.2371 150.541 22.2595 150.595 22.2908L150.622 22.0089C150.559 21.991 150.496 21.9732 150.433 21.9597C150.371 21.9463 150.303 21.9418 150.236 21.9418C150.129 21.9418 150.03 21.9553 149.94 21.9821C149.851 22.0089 149.77 22.0537 149.703 22.1074C149.636 22.1655 149.586 22.2327 149.546 22.3177C149.51 22.4027 149.492 22.5011 149.492 22.613C149.492 22.7338 149.515 22.8412 149.559 22.9262C149.613 23.0291 149.667 23.0962 149.739 23.1454Z" className="dark:fill-white fill-black" />
                            <path d="M151.24 21.9777H150.895V23.2752H151.24V21.9777Z" className="dark:fill-white fill-black" />
                            <path d="M151.944 22.9978H152.433L152.531 23.2752H152.912L152.41 21.9777H151.984L151.491 23.2752H151.841L151.944 22.9978ZM152.191 22.2461L152.348 22.7517H152.02L152.191 22.2461Z" className="dark:fill-white fill-black" />
                            <path d="M154.015 23.0157H153.482V21.9777H153.136V23.2752H154.015V23.0157Z" className="dark:fill-white fill-black" />
                            <path d="M145.87 25.217H145.337V24.1745H144.987V25.472H145.87V25.217Z" className="dark:fill-white fill-black" />
                            <path d="M146.479 24.1745H146.135V25.472H146.479V24.1745Z" className="dark:fill-white fill-black" />
                            <path d="M146.995 24.3222C146.928 24.3803 146.879 24.4474 146.839 24.5324C146.803 24.6175 146.785 24.7159 146.785 24.8278C146.785 24.9486 146.807 25.0559 146.852 25.1409C146.897 25.226 146.955 25.2931 147.027 25.3468C147.098 25.4005 147.179 25.4363 147.269 25.4586C147.358 25.481 147.444 25.4944 147.533 25.4944C147.623 25.4944 147.695 25.4899 147.753 25.4765C147.811 25.4676 147.865 25.4541 147.919 25.4407L147.901 25.1678C147.856 25.1857 147.802 25.2036 147.748 25.217C147.695 25.2304 147.636 25.2349 147.578 25.2349C147.515 25.2349 147.457 25.226 147.403 25.2081C147.35 25.1902 147.305 25.1633 147.269 25.1275C147.233 25.0917 147.202 25.0515 147.179 24.9978C147.157 24.9486 147.148 24.8904 147.148 24.8278C147.148 24.7651 147.157 24.7114 147.175 24.6577C147.193 24.6085 147.22 24.5638 147.255 24.5235C147.291 24.4877 147.332 24.4564 147.381 24.434C147.43 24.4116 147.488 24.4027 147.547 24.4027C147.605 24.4027 147.663 24.4116 147.717 24.4251C147.771 24.4385 147.829 24.4609 147.883 24.4922L147.91 24.2103C147.847 24.1924 147.784 24.1745 147.722 24.1611C147.659 24.1477 147.592 24.1432 147.524 24.1432C147.417 24.1432 147.318 24.1566 147.228 24.1835C147.139 24.2237 147.058 24.264 146.995 24.3222Z" className="dark:fill-white fill-black" />
                            <path d="M148.502 24.9351H149.039V24.689H148.502V24.4206H149.071V24.1745H148.156V25.472H149.089V25.226H148.502V24.9351Z" className="dark:fill-white fill-black" />
                            <path d="M149.707 24.5861H149.712L150.165 25.472H150.595V24.1745H150.277L150.281 25.0559L149.842 24.1745H149.398V25.472H149.716L149.707 24.5861Z" className="dark:fill-white fill-black" />
                            <path d="M151.052 24.8546C151.097 24.8814 151.146 24.9038 151.2 24.9217C151.254 24.9351 151.303 24.953 151.348 24.9664C151.393 24.9799 151.433 25.0022 151.46 25.0201C151.491 25.0425 151.505 25.0738 151.505 25.1141C151.505 25.1409 151.5 25.1633 151.487 25.1767C151.473 25.1946 151.46 25.208 151.438 25.217C151.42 25.2259 151.393 25.2304 151.37 25.2349C151.343 25.2394 151.317 25.2394 151.29 25.2394C151.218 25.2394 151.151 25.2304 151.092 25.217C151.03 25.1991 150.98 25.1812 150.936 25.1544L150.904 25.4407C150.962 25.4586 151.025 25.472 151.097 25.481C151.169 25.4899 151.231 25.4944 151.294 25.4944C151.366 25.4944 151.438 25.4899 151.505 25.4765C151.572 25.4631 151.635 25.4407 151.689 25.4094C151.742 25.3781 151.783 25.3333 151.819 25.2796C151.85 25.2259 151.868 25.1544 151.868 25.0693C151.868 24.9933 151.854 24.9306 151.823 24.8814C151.792 24.8367 151.756 24.7964 151.711 24.7696C151.666 24.7427 151.617 24.7204 151.563 24.7025C151.509 24.689 151.46 24.6711 151.415 24.6577C151.37 24.6443 151.33 24.6264 151.303 24.6085C151.272 24.5906 151.258 24.5638 151.258 24.528C151.258 24.5011 151.267 24.4787 151.281 24.4608C151.299 24.4429 151.317 24.434 151.339 24.4251C151.361 24.4161 151.388 24.4116 151.415 24.4116C151.442 24.4116 151.464 24.4072 151.487 24.4072C151.536 24.4072 151.586 24.4116 151.635 24.4206C151.684 24.4295 151.729 24.4429 151.774 24.4653L151.796 24.1969C151.751 24.1834 151.702 24.17 151.644 24.1611C151.586 24.1521 151.523 24.1476 151.46 24.1476C151.393 24.1476 151.33 24.1521 151.263 24.1655C151.196 24.179 151.137 24.1969 151.083 24.2282C151.03 24.2595 150.985 24.2998 150.949 24.349C150.913 24.3982 150.895 24.4653 150.895 24.5414C150.895 24.6219 150.909 24.6846 150.94 24.7293C150.971 24.7875 151.007 24.8277 151.052 24.8546Z" className="dark:fill-white fill-black" />
                            <path d="M153.069 24.4206V24.1745H152.155V25.472H153.092V25.226H152.5V24.9351H153.038V24.689H152.5V24.4206H153.069Z" className="dark:fill-white fill-black" />
                            <path d="M153.392 24.1745V25.472H153.863C153.975 25.472 154.073 25.4586 154.167 25.4362C154.262 25.4139 154.342 25.3781 154.409 25.3244C154.477 25.2752 154.531 25.2081 154.571 25.123C154.611 25.038 154.629 24.9396 154.629 24.8188C154.629 24.6935 154.611 24.5906 154.571 24.5056C154.535 24.4206 154.481 24.3579 154.414 24.3087C154.347 24.2595 154.266 24.2237 154.172 24.2058C154.078 24.1879 153.975 24.1745 153.863 24.1745H153.392V24.1745ZM154.172 24.5324C154.244 24.5996 154.28 24.698 154.28 24.8277C154.28 24.9575 154.244 25.0559 154.176 25.123C154.105 25.1902 154.006 25.2215 153.876 25.2215H153.742V24.4385H153.876C154.002 24.434 154.1 24.4653 154.172 24.5324Z" className="dark:fill-white fill-black" />
                            <path d="M145.337 27.217H145.471C145.633 27.217 145.758 27.1812 145.852 27.1051C145.942 27.0335 145.987 26.9306 145.987 26.7964C145.987 26.6487 145.938 26.5414 145.843 26.4742C145.749 26.4071 145.601 26.3713 145.404 26.3713H144.992V27.6689H145.337V27.217ZM145.337 26.6219H145.427C145.458 26.6219 145.485 26.6264 145.512 26.6308C145.539 26.6353 145.561 26.6443 145.579 26.6577C145.597 26.6711 145.615 26.689 145.624 26.7114C145.637 26.7338 145.642 26.7606 145.642 26.7964C145.642 26.8322 145.637 26.859 145.624 26.8814C145.615 26.9038 145.597 26.9217 145.579 26.9351C145.561 26.9485 145.539 26.9575 145.512 26.9664C145.485 26.9709 145.458 26.9754 145.427 26.9754H145.337V26.6219Z" className="dark:fill-white fill-black" />
                            <path d="M147.157 27.2125C147.148 27.1812 147.134 27.1544 147.121 27.1275C147.107 27.1051 147.094 27.0828 147.076 27.0693C147.058 27.0514 147.036 27.0425 147.009 27.0336V27.0291C147.094 27.0112 147.157 26.9709 147.197 26.9172C147.237 26.8635 147.26 26.7919 147.26 26.7025C147.26 26.6488 147.251 26.5995 147.229 26.5593C147.206 26.519 147.175 26.4832 147.139 26.4564C147.099 26.4295 147.058 26.4072 147.004 26.3982C146.955 26.3848 146.901 26.3803 146.843 26.3803H146.224V27.6778H146.57V27.1633H146.641C146.673 27.1633 146.7 27.1678 146.722 27.1767C146.744 27.1857 146.767 27.1991 146.785 27.2215C146.803 27.2438 146.821 27.2707 146.834 27.3065C146.847 27.3423 146.865 27.387 146.883 27.4452L146.96 27.6778H147.327L147.202 27.3244C147.184 27.2796 147.17 27.2438 147.157 27.2125ZM146.892 26.8501C146.874 26.868 146.856 26.8859 146.834 26.8948C146.812 26.9038 146.785 26.9127 146.753 26.9127C146.722 26.9127 146.695 26.9172 146.668 26.9172H146.579V26.6219H146.668C146.7 26.6219 146.735 26.6219 146.762 26.6264C146.794 26.6309 146.821 26.6353 146.843 26.6488C146.865 26.6577 146.883 26.6711 146.897 26.6935C146.91 26.7114 146.919 26.7383 146.919 26.7651C146.919 26.8009 146.91 26.8277 146.892 26.8501Z" className="dark:fill-white fill-black" />
                            <path d="M148.658 26.5324C148.605 26.4743 148.537 26.4295 148.457 26.3982C148.376 26.3669 148.282 26.3535 148.174 26.3535C148.067 26.3535 147.973 26.3669 147.892 26.3982C147.811 26.4295 147.744 26.4743 147.69 26.5324C147.636 26.5906 147.596 26.6622 147.565 26.7427C147.538 26.8233 147.524 26.9172 147.524 27.0246C147.524 27.1275 147.538 27.2215 147.565 27.302C147.592 27.387 147.632 27.4541 147.69 27.5123C147.744 27.5705 147.811 27.6152 147.892 27.6465C147.973 27.6778 148.067 27.6913 148.174 27.6913C148.282 27.6913 148.372 27.6778 148.452 27.6465C148.533 27.6152 148.6 27.5705 148.658 27.5123C148.712 27.4541 148.757 27.3825 148.784 27.302C148.811 27.217 148.824 27.1275 148.824 27.0246C148.824 26.9217 148.811 26.8277 148.784 26.7427C148.757 26.6622 148.712 26.5906 148.658 26.5324ZM148.452 27.1767C148.439 27.2259 148.425 27.2707 148.398 27.3109C148.376 27.3512 148.345 27.3781 148.309 27.4049C148.273 27.4273 148.228 27.4407 148.174 27.4407C148.121 27.4407 148.076 27.4273 148.04 27.4049C148.004 27.3825 147.973 27.3512 147.95 27.3109C147.928 27.2707 147.91 27.2304 147.896 27.1767C147.883 27.123 147.878 27.0738 147.878 27.0201C147.878 26.9664 147.883 26.9127 147.896 26.8635C147.91 26.8143 147.923 26.7696 147.95 26.7338C147.973 26.698 148.004 26.6667 148.04 26.6443C148.076 26.6219 148.121 26.6085 148.174 26.6085C148.228 26.6085 148.273 26.6219 148.309 26.6443C148.345 26.6667 148.376 26.698 148.398 26.7338C148.421 26.7696 148.439 26.8143 148.452 26.8635C148.466 26.9127 148.47 26.9664 148.47 27.0201C148.466 27.0783 148.461 27.1275 148.452 27.1767Z" className="dark:fill-white fill-black" />
                            <path d="M150.138 26.5101C150.07 26.4609 149.99 26.4251 149.896 26.4072C149.801 26.3893 149.698 26.3759 149.586 26.3759H149.116V27.6734H149.586C149.698 27.6734 149.797 27.66 149.891 27.6376C149.985 27.6152 150.066 27.5794 150.133 27.5257C150.2 27.4765 150.254 27.4049 150.295 27.3244C150.335 27.2394 150.353 27.141 150.353 27.0202C150.353 26.8949 150.335 26.792 150.295 26.707C150.259 26.6219 150.205 26.5548 150.138 26.5101ZM149.891 27.3155C149.819 27.3826 149.721 27.4139 149.591 27.4139H149.456V26.6309H149.591C149.716 26.6309 149.819 26.6622 149.887 26.7293C149.958 26.7964 149.994 26.8949 149.994 27.0246C149.994 27.1544 149.958 27.2528 149.891 27.3155Z" className="dark:fill-white fill-black" />
                            <path d="M150.788 27.5705C150.837 27.6108 150.9 27.6421 150.967 27.6644C151.039 27.6868 151.115 27.6958 151.2 27.6958C151.285 27.6958 151.361 27.6868 151.433 27.6644C151.505 27.6421 151.563 27.6108 151.612 27.5705C151.662 27.5302 151.702 27.4765 151.729 27.4094C151.756 27.3468 151.769 27.2662 151.769 27.1812V26.3759H151.424V27.1231C151.424 27.1678 151.42 27.2081 151.415 27.2439C151.411 27.2797 151.397 27.3155 151.379 27.3423C151.361 27.3736 151.339 27.396 151.312 27.4094C151.285 27.4273 151.249 27.4363 151.204 27.4363C151.16 27.4363 151.124 27.4273 151.097 27.4094C151.07 27.3915 151.048 27.3691 151.03 27.3423C151.012 27.3155 151.003 27.2797 150.994 27.2439C150.989 27.2081 150.985 27.1678 150.985 27.1231V26.3759H150.64V27.1812C150.64 27.2707 150.653 27.3468 150.68 27.4094C150.702 27.4721 150.738 27.5257 150.788 27.5705Z" className="dark:fill-white fill-black" />
                            <path d="M152.997 27.4184C152.944 27.4318 152.885 27.4363 152.827 27.4363C152.764 27.4363 152.706 27.4273 152.652 27.4094C152.599 27.3915 152.554 27.3647 152.513 27.3289C152.478 27.2931 152.446 27.2528 152.424 27.1991C152.401 27.1499 152.392 27.0917 152.392 27.0291C152.392 26.9665 152.401 26.9128 152.419 26.8591C152.437 26.8099 152.464 26.7651 152.5 26.7249C152.536 26.6891 152.576 26.6577 152.625 26.6354C152.675 26.613 152.733 26.6041 152.791 26.6041C152.85 26.6041 152.908 26.613 152.962 26.6264C153.015 26.6398 153.074 26.6622 153.127 26.6935L153.154 26.4117C153.092 26.3938 153.029 26.3759 152.966 26.3624C152.903 26.349 152.836 26.3445 152.769 26.3445C152.661 26.3445 152.563 26.358 152.473 26.3848C152.383 26.4117 152.303 26.4564 152.235 26.5101C152.168 26.5683 152.119 26.6354 152.079 26.7204C152.043 26.8054 152.025 26.9038 152.025 27.0157C152.025 27.1365 152.047 27.2439 152.092 27.3289C152.137 27.4139 152.195 27.481 152.267 27.5347C152.339 27.5884 152.419 27.6242 152.509 27.6466C152.599 27.6689 152.684 27.6824 152.773 27.6824C152.863 27.6824 152.935 27.6779 152.993 27.6645C153.051 27.6555 153.105 27.6421 153.159 27.6287L153.141 27.3557C153.105 27.387 153.056 27.4049 152.997 27.4184Z" className="dark:fill-white fill-black" />
                            <path d="M153.325 26.6309H153.643V27.6734H153.988V26.6309H154.311V26.3759H153.325V26.6309Z" className="dark:fill-white fill-black" />
                            <path d="M141.527 9.7226V30.2774H158V9.7226H141.527V9.7226ZM157.821 30.0984H141.706V20.0895H157.821V30.0984ZM157.821 19.9105H141.706V9.90157H157.821V19.9105Z" className="dark:fill-white fill-black" />
                            <path d="M51.6028 14.2192H61.2806L62.056 9.7226H46.6944L43.0546 30.2774H48.7743L50.1325 22.4922H57.959L58.739 17.9955H50.9394L51.6028 14.2192Z" className="dark:fill-white fill-black" />
                            <path d="M64.0597 9.7226L60.4199 30.2774H66.1082L69.7481 9.7226H64.0597Z" className="dark:fill-white fill-black" />
                            <path d="M83.7873 17.9955H75.9877L76.6511 14.2192H86.3289L87.1089 9.7226H71.7428L68.103 30.2774H73.8227L75.1809 22.4922H83.0074L83.7873 17.9955Z" className="dark:fill-white fill-black" />
                            <path d="M91.8783 9.69128L81.1068 30.2729H86.5934L88.3281 26.6711H95.4598L95.9215 30.2729H101.583L98.2614 9.69128H91.8783V9.69128ZM90.3766 22.3759L93.8416 14.9665H93.9582L94.9129 22.3759H90.3766Z" className="dark:fill-white fill-black" />
                            <path d="M112.744 25.6376L114.703 23.8881C117.478 21.4094 121.66 18.255 121.66 14.1745C121.66 10.4966 118.648 9.18567 115.376 9.18567C111.225 9.18567 107.63 11.0246 106.841 15.2259C106.81 15.3154 106.666 16.2774 106.635 16.3624H111.808C112.041 14.9038 112.48 13.3557 114.322 13.3557C115.317 13.3557 116.133 13.8792 116.133 14.962C116.133 16.8859 113.708 19.1051 112.189 20.5637L105.29 27.1275L104.734 30.2774H119.146L119.934 25.7852H112.713L112.744 25.6376Z" className="dark:fill-white fill-black" />
                            <path d="M130.908 23.8881C133.682 21.4094 137.864 18.255 137.864 14.1745C137.864 10.4966 134.852 9.18567 131.58 9.18567C127.429 9.18567 123.834 11.0246 123.045 15.2259C123.014 15.3154 122.87 16.2774 122.839 16.3624H128.012C128.245 14.9038 128.684 13.3557 130.527 13.3557C131.522 13.3557 132.338 13.8792 132.338 14.962C132.338 16.8859 129.912 19.1051 128.393 20.5637L121.494 27.1275L120.938 30.2774H135.35L136.139 25.7852H128.917L128.949 25.6376L130.908 23.8881Z" className="dark:fill-white fill-black" />
                            <path d="M20.0369 40C31.1029 40 40.0738 31.0457 40.0738 20C40.0738 8.9543 31.1029 0 20.0369 0C8.97082 0 0 8.9543 0 20C0 31.0457 8.97082 40 20.0369 40Z" className="dark:fill-white fill-black" />
                            <path d="M33.211 23.217H33.722V23.3065H33.5203V23.7405H33.4172V23.3065H33.2155V23.217H33.211ZM9.31465 25.226H8.16264C7.90265 25.226 7.77714 25.0828 7.77714 24.8009V24.3445C7.77714 24.2148 7.80852 24.1074 7.88472 24.0224C7.95196 23.9374 8.0461 23.8971 8.16713 23.8971H9.0726C9.28776 23.8971 9.43119 24 9.49395 24.2103L9.61946 24.6488H10.4487V24.1655C10.4487 23.8434 10.3411 23.5749 10.126 23.3602C9.90634 23.1454 9.63739 23.038 9.32362 23.038H7.98334C7.66956 23.038 7.39165 23.1499 7.16752 23.3736C6.94788 23.5973 6.83582 23.8658 6.83582 24.179V24.9575C6.83582 25.2752 6.94788 25.5481 7.16752 25.7718C7.39613 25.9955 7.66956 26.1074 7.98334 26.1074H9.13983C9.39534 26.1074 9.52533 26.255 9.52533 26.5459V27.1365C9.52533 27.2617 9.48947 27.3691 9.42223 27.4541C9.35051 27.5391 9.25638 27.5794 9.13983 27.5794H8.22091C7.98782 27.5794 7.84887 27.472 7.7906 27.2707L7.66957 26.7741H6.83582V27.311C6.83582 27.6376 6.9434 27.906 7.15856 28.1208C7.37372 28.3356 7.64267 28.443 7.96541 28.443H9.32362C9.63739 28.443 9.91083 28.3311 10.135 28.1074C10.3546 27.8881 10.4667 27.6152 10.4667 27.2931V26.3803C10.4667 26.0671 10.3546 25.7987 10.1305 25.5705C9.89738 25.3423 9.62843 25.226 9.31465 25.226ZM14.8461 23.3781C15.0702 23.5973 15.1823 23.8702 15.1823 24.179V25.3154C15.1823 25.6331 15.0702 25.9016 14.8461 26.1253C14.6175 26.349 14.344 26.4608 14.0258 26.4608H12.5331V28.443H11.5783V23.0425H14.0258C14.344 23.0425 14.6175 23.1499 14.8461 23.3781ZM14.223 24.3535C14.223 24.2237 14.1872 24.1208 14.1154 24.0358C14.0437 23.9508 13.9496 23.9105 13.842 23.9105H12.5376V25.5884H13.842C13.9541 25.5884 14.0482 25.5436 14.1154 25.4631C14.1872 25.3781 14.223 25.2752 14.223 25.1454V24.3535ZM23.7439 26.2103L24.6942 28.443H23.6767L22.7936 26.3311H21.8836V28.443H20.9244V23.0425H23.3181C23.6408 23.0425 23.9097 23.1544 24.1339 23.3781C24.358 23.5973 24.4701 23.8702 24.4701 24.179V25.123C24.4701 25.3691 24.4028 25.5928 24.2684 25.7897C24.1339 25.9776 23.9546 26.1163 23.7439 26.2103ZM23.5153 24.3535C23.5153 24.2237 23.4839 24.1208 23.4122 24.0358C23.3449 23.9508 23.2508 23.9105 23.1388 23.9105H21.8881V25.4541H23.1388C23.2508 25.4541 23.3405 25.4139 23.4122 25.3333C23.4794 25.2483 23.5153 25.1454 23.5153 25.0157V24.3535ZM25.0797 23.9105H26.4558V28.4385H27.4151V23.9105H28.8047V23.038H25.0842V23.9105H25.0797ZM31.9828 25.226H30.8308C30.5753 25.226 30.4453 25.0828 30.4453 24.8009V24.3445C30.4453 24.2148 30.4811 24.1074 30.5484 24.0224C30.6156 23.9374 30.7142 23.8971 30.8308 23.8971H31.7407C31.9559 23.8971 32.0948 24 32.1621 24.2103L32.2876 24.6488H33.1213V24.1655C33.1213 23.8434 33.0093 23.5749 32.7941 23.3602C32.5745 23.1454 32.3055 23.038 31.9873 23.038H30.6515C30.3332 23.038 30.0598 23.1499 29.8401 23.3736C29.616 23.5973 29.5039 23.8658 29.5039 24.179V24.9575C29.5039 25.2752 29.6205 25.5481 29.8401 25.7718C30.0598 25.9955 30.3332 26.1074 30.6515 26.1074H31.8035C32.0635 26.1074 32.189 26.255 32.189 26.5459V27.1365C32.189 27.2617 32.1531 27.3691 32.0859 27.4541C32.0142 27.5391 31.92 27.5794 31.8035 27.5794H30.8846C30.6559 27.5794 30.5125 27.472 30.4542 27.2707L30.3287 26.7741H29.495V27.311C29.495 27.6376 29.6026 27.906 29.8177 28.1208C30.0374 28.3356 30.3018 28.443 30.6291 28.443H31.9828C32.3055 28.443 32.5745 28.3311 32.8031 28.1074C33.0272 27.8881 33.1393 27.6152 33.1393 27.2931V26.3803C33.1393 26.0671 33.0272 25.7987 32.7941 25.5705C32.57 25.3423 32.301 25.226 31.9828 25.226ZM34.3451 23.217L34.1389 23.5347L33.9327 23.217H33.843V23.7405H33.9327V23.4183C33.9327 23.4004 33.9237 23.3826 33.9237 23.3602C33.9327 23.3781 33.9461 23.4004 33.9551 23.4139L34.1254 23.6734H34.1433L34.3092 23.4183C34.3226 23.4004 34.3271 23.3826 34.3361 23.3602C34.3316 23.387 34.3316 23.4049 34.3316 23.4183V23.7405H34.4258V23.217H34.3451V23.217ZM19.4272 23.3736C19.6558 23.5928 19.7679 23.8658 19.7679 24.179V27.2841C19.7679 27.6107 19.6603 27.8837 19.4272 28.1074C19.2031 28.3311 18.9341 28.443 18.6114 28.443H17.3204C16.9977 28.443 16.7243 28.3311 16.5001 28.1074C16.276 27.8881 16.1639 27.6152 16.1639 27.2841V24.179C16.1639 23.8702 16.2805 23.5973 16.5001 23.3781C16.7243 23.1544 16.9977 23.0425 17.3204 23.0425H18.6114C18.9341 23.0425 19.1986 23.1499 19.4272 23.3736ZM18.8131 24.3535C18.8131 24.2237 18.7773 24.1208 18.7011 24.0358C18.6293 23.9508 18.5397 23.9105 18.4276 23.9105H17.5087C17.3877 23.9105 17.298 23.9508 17.2263 24.0358C17.1591 24.1208 17.1232 24.2237 17.1232 24.3535V27.123C17.1232 27.2483 17.1546 27.3512 17.2263 27.4362C17.298 27.5257 17.3922 27.5705 17.5087 27.5705H18.4276C18.5397 27.5705 18.6293 27.5257 18.7011 27.4362C18.7773 27.3512 18.8131 27.2483 18.8131 27.123V24.3535ZM22.8474 9.25727H12.5466L10.9732 11.7584L21.2695 11.7539L22.8474 9.25727ZM26.7472 16.7517H25.2052L23.6229 19.2573H28.334L29.9163 21.7539H32.9241L24.9542 9.16779L18.5531 19.2573H11.5514L13.1562 16.7562H17.5042L19.091 14.255H9.39085L7.80852 16.7562H10.135L6.96133 21.7584L20.0055 21.7539L24.9542 13.9105L26.7472 16.7517Z" className="dark:fill-black fill-white" />
                        </svg>