<svg className="dark:fill-white" height="74pt" viewBox="0 0 515 74" width="515pt" xmlns="http://www.w3.org/2000/svg">
                            <g id="Valorant_logo">
                                <path d="m459.10547 14.35156h18.42578l.05859 56.5c0 .72657.58985 1.32422 1.32422 1.32422l10.55078-.00781c.73438 0 1.32422-.58984 1.32422-1.32422l-.0625-56.49219h23.10938c.67969 0 1.0664-.79297.63281-1.32422l-7.91016-9.91015c-.66015-.83203-1.66406-1.3125-2.72265-1.31641h-44.73047c-.73438 0-1.32422.58985-1.32422 1.32422v9.91016c0 .71875.58984 1.3164 1.32422 1.3164m-444.73828 56.50782 54.05469-67.73438c.42578-.53125.04296-1.32422-.63672-1.32422h-13.51563c-1.05859 0-2.0664.48828-2.72656 1.31641l-38.34766 48.04687v-48.04687c0-.73438-.58984-1.32422-1.32031-1.32422h-10.55469c-.73047 0-1.32031.58984-1.32031 1.32422v67.73437c0 .73438.58984 1.32422 1.32031 1.32422h10.32422c1.0586 0 2.0586-.48437 2.72266-1.3164m38.10937 0 18.59375-23.29688 18.59375 23.29688c.66016.83203 1.66797 1.3164 2.73047 1.3164h10.32031c.73438 0 1.32422-.58984 1.32422-1.32422v-67.73437c0-.72656-.58984-1.32422-1.32422-1.32422h-8.65625c-2.12109 0-4.1289.96484-5.45703 2.625l-53.00781 66.42578c-.42578.53125-.04297 1.32422.63672 1.32422h13.51562c1.06641.00781 2.06641-.47656 2.73047-1.30859m38.35938-49.48829v31.20704l-12.45313-15.60157zm301.80859 49.47266-54.05078-67.73437c-.66016-.82813-1.66406-1.3125-2.72266-1.31641h-10.33203c-.73047 0-1.32031.58984-1.32031 1.32422v67.73437c0 .73438.58984 1.32422 1.32031 1.32422h10.32422c1.0586 0 2.06641-.48437 2.72266-1.3164l18.59375-23.29688 18.58984 23.29688c.66406.83203 1.66406 1.3164 2.72656 1.3164h13.51563c.67969 0 1.05859-.79297.63281-1.33203m-42.78906-33.86719-12.45703 15.60938v-31.21485zm-148.74609-36.9375c-20.375 0-36.89063 16.53907-36.89063 36.94532s16.51563 36.94921 36.89063 36.94921c20.3789 0 36.89453-16.54296 36.89453-36.94921.00781-20.40625-16.51563-36.94532-36.89453-36.94532m0 61.33594c-13.08985 0-23.69532-10.92187-23.69532-24.39062s10.60547-24.39844 23.69532-24.39844c13.09375 0 23.69921 10.92187 23.69921 24.39844.00782 13.46875-10.60546 24.39062-23.69921 24.39062m234.3125-58.25781v48.04687l-38.34766-48.05468c-.66406-.82813-1.66406-1.3125-2.72656-1.31641h-10.33594c-.72656 0-1.32031.58984-1.32031 1.32422v32.64062c0 .79297.26562 1.5625.76562 2.1836l10.98047 13.76172c.48438.60546 1.45703.26171 1.45703-.50782v-28.40625l38.35547 48.07032c.66016.83203 1.66406 1.3164 2.72266 1.3164h10.32422c.73046 0 1.32031-.58984 1.32031-1.32422v-67.73437c0-.72656-.58985-1.32422-1.32031-1.32422h-10.55469c-.73047 0-1.32031.59766-1.32031 1.32422m-128.94532 14.67969v-14.67969c0-.73438-.58984-1.32422-1.32031-1.32422h-54.01562c-.73047 0-1.32032.58984-1.32032 1.32422v67.73437c0 .73438.58985 1.32422 1.32032 1.32422h10.55468c.73047 0 1.32032-.58984 1.32032-1.32422v-56.49218h30.26562l-20.42969 25.60937c-.3789.47656-.3789 1.16406 0 1.65234l23.33985 29.2461c.66406.83203 1.66406 1.3164 2.72656 1.3164h13.51562c.67969 0 1.0586-.79296.63282-1.32421l-23.98828-30.05469 16.6289-20.8086c.49219-.63671.76953-1.40625.76953-2.19921m-185.27343 54.3789h31.32031c1.05859 0 2.0664-.48437 2.72265-1.3164l7.91016-9.91797c.42578-.53125.04688-1.32422-.63281-1.32422h-29.44531v-56.5c0-.73438-.58985-1.32422-1.32032-1.32422h-10.55468c-.73047 0-1.32032.58984-1.32032 1.32422v67.73437c0 .72657.59766 1.32422 1.32032 1.32422" />
                            </g>
                        </svg>